<svg xmlns="http://www.w3.org/2000/svg" width="31.291" height="31.009" viewBox="0 0 31.291 31.009">
  <path id="Icon_material-call" data-name="Icon material-call" d="M10.793,17.92A26.217,26.217,0,0,0,22.249,29.273l3.824-3.79a1.74,1.74,0,0,1,1.773-.413,19.994,19.994,0,0,0,6.206.982,1.736,1.736,0,0,1,1.738,1.723v6.012a1.736,1.736,0,0,1-1.738,1.723A29.418,29.418,0,0,1,4.5,6.223,1.736,1.736,0,0,1,6.238,4.5h6.084a1.736,1.736,0,0,1,1.738,1.723,19.41,19.41,0,0,0,.991,6.15,1.718,1.718,0,0,1-.435,1.757Z" transform="translate(-4.5 -4.5)" fill="#002333"/>
</svg>
