<svg id="Icon_ionic-md-mail-unread" data-name="Icon ionic-md-mail-unread" xmlns="http://www.w3.org/2000/svg" width="32.625" height="25.882" viewBox="0 0 32.625 25.882">
  <path id="Path_1" data-name="Path 1" d="M34.875,9a4.5,4.5,0,1,1-4.5-4.5A4.5,4.5,0,0,1,34.875,9Z" transform="translate(-2.25 -4.5)" fill="#002333"/>
  <path id="Path_2" data-name="Path 2" d="M26.923,14.3,18,20.25,5.625,12V9L18,17.248l7.109-4.739a6.322,6.322,0,0,1-.084-6.884H5.252a3.01,3.01,0,0,0-3,3V27.38a3.01,3.01,0,0,0,3,3h25.5a3.01,3.01,0,0,0,3-3V14.351a6.329,6.329,0,0,1-6.834-.049Z" transform="translate(-2.25 -4.5)" fill="#002333"/>
</svg>
