<svg xmlns="http://www.w3.org/2000/svg" width="16.921" height="16.924" viewBox="0 0 16.921 16.924">
  <g id="_1873373" data-name="1873373" transform="translate(-0.6 1279.55)">
    <path id="Path_5" data-name="Path 5" d="M8.657-1279.548a8.4,8.4,0,0,0-3.407.9,8.468,8.468,0,0,0-4.5,5.921,7.654,7.654,0,0,0-.152,1.641,6.923,6.923,0,0,0,.079,1.2,8.445,8.445,0,0,0,2.948,5.289,8.442,8.442,0,0,0,4.427,1.915,7.026,7.026,0,0,0,1.006.054,6.691,6.691,0,0,0,1.052-.061,8.469,8.469,0,0,0,6.527-4.623,8.385,8.385,0,0,0,.8-2.573,6.882,6.882,0,0,0,.079-1.2,7.1,7.1,0,0,0-.079-1.211,8.471,8.471,0,0,0-7.177-7.178,7.248,7.248,0,0,0-1.1-.078C8.93-1279.551,8.7-1279.551,8.657-1279.548Zm.957.941c.426.449.617.663.872.978a12.093,12.093,0,0,1,1.422,2.2c.109.22.275.586.269.593s-.343.107-.589.168a10.048,10.048,0,0,1-1.111.218c-.2.029-.474.056-.9.086l-.11.007v-2.183c0-1.726,0-2.183.016-2.183A.687.687,0,0,1,9.614-1278.607Zm-.963,2.095v2.158l-.1-.008-.288-.02a10.429,10.429,0,0,1-1.25-.173,7.876,7.876,0,0,1-.986-.258s.045-.108.1-.234a12.083,12.083,0,0,1,1.949-3.022c.192-.22.545-.6.56-.6S8.65-1277.7,8.65-1276.513Zm-1.265-2.022c-.007.009-.056.07-.111.136a12.7,12.7,0,0,0-1.925,3.078c-.053.124-.1.229-.1.233a9.3,9.3,0,0,1-1.1-.505,6.671,6.671,0,0,1-.844-.523,11.456,11.456,0,0,1,.827-.812,7.667,7.667,0,0,1,2.738-1.483c.091-.026.5-.136.521-.139C7.393-1278.55,7.391-1278.543,7.385-1278.535Zm3.607.052a7.615,7.615,0,0,1,3.168,1.7c.176.159.619.606.644.651.011.021-.007.037-.139.123a10.536,10.536,0,0,1-1.1.618c-.242.117-.572.263-.594.263a.962.962,0,0,1-.1-.2,12.614,12.614,0,0,0-1.818-2.919c-.1-.115-.187-.228-.2-.248s-.026-.038-.02-.038S10.909-1278.505,10.992-1278.483Zm-7.665,3.371a10.742,10.742,0,0,0,1.355.689c.142.061.262.114.267.119a.3.3,0,0,1-.022.114,11.228,11.228,0,0,0-.337,1.421,10.652,10.652,0,0,0-.12,1.109.891.891,0,0,1-.008.12l-.009.041-1.51,0-1.51,0,0-.079a7.579,7.579,0,0,1,.422-2.064,7.841,7.841,0,0,1,.872-1.723l.058-.082.172.111C3.055-1275.279,3.22-1275.176,3.327-1275.111Zm12.115-.18a7.675,7.675,0,0,1,.975,2.129,7.926,7.926,0,0,1,.258,1.44c0,.062.011.138.015.168l.007.057H13.775l-.009-.169a10.513,10.513,0,0,0-.433-2.4c-.037-.124-.069-.236-.07-.249s.053-.046.242-.128a11.429,11.429,0,0,0,1.538-.818c.127-.081.242-.155.257-.165s.03-.017.036-.015A1.644,1.644,0,0,1,15.442-1275.291Zm-2.94,1.326a9.475,9.475,0,0,1,.414,2.038c.011.116.021.259.024.318l0,.106-1.736,0-1.737,0v-2.032l.262-.016a11.4,11.4,0,0,0,2.537-.451,1.473,1.473,0,0,1,.191-.05C12.469-1274.046,12.489-1274.009,12.5-1273.965Zm-6.549,0a11.236,11.236,0,0,0,2.436.421l.261.016v2.032H5.289v-.058c0-.1.038-.529.067-.749a10.047,10.047,0,0,1,.251-1.265,4.2,4.2,0,0,1,.138-.455Zm-1.493,3.319a.67.67,0,0,1,.008.11c0,.111.034.488.066.741a10.808,10.808,0,0,0,.437,1.929,1.066,1.066,0,0,1,.056.209,1.728,1.728,0,0,1-.175.075,11.189,11.189,0,0,0-1.724.887,1.267,1.267,0,0,1-.233.127c-.029-.032-.208-.294-.29-.425a7.588,7.588,0,0,1-1.06-2.7c-.044-.233-.087-.569-.1-.754,0-.062-.011-.138-.015-.169l-.007-.056H4.453Zm4.189,1.108v1.137l-.128.008a11.348,11.348,0,0,0-1.993.279c-.187.044-.68.175-.7.187a4.745,4.745,0,0,1-.183-.55,9.882,9.882,0,0,1-.353-2.055l-.009-.142H8.65Zm4.294-1.041c-.029.382-.038.483-.067.712a9.755,9.755,0,0,1-.271,1.336c-.069.241-.2.635-.205.635s-.073-.02-.155-.045a11.336,11.336,0,0,0-1.557-.344c-.37-.054-.6-.077-1.088-.109l-.13-.008v-2.273h3.481Zm3.746-.046c0,.028-.011.1-.015.169a7.654,7.654,0,0,1-.975,3.156c-.136.235-.414.666-.475.733a1.176,1.176,0,0,1-.233-.127,11.458,11.458,0,0,0-1.687-.872.313.313,0,0,1-.116-.061.472.472,0,0,1,.026-.085c.046-.118.2-.631.259-.879a10.251,10.251,0,0,0,.286-1.83l.016-.254H16.7Zm-8.04,5.088v2.028l-.147-.152a12.443,12.443,0,0,1-2.26-3.24,1.923,1.923,0,0,1-.1-.245,6.741,6.741,0,0,1,1-.251,9.764,9.764,0,0,1,1.4-.164l.109,0Zm1.4-1.993a10.5,10.5,0,0,1,1.879.357l.143.041c.012,0,.022.013.022.022,0,.03-.361.74-.5.98a12.323,12.323,0,0,1-1.508,2.081,4.893,4.893,0,0,1-.586.6,13.262,13.262,0,0,1-.025-2.059v-2.06l.189.009C9.763-1267.557,9.938-1267.544,10.046-1267.533Zm-4.486,1.11a12.575,12.575,0,0,0,1.687,2.594c.094.112.168.205.164.205-.021,0-.314-.074-.466-.118a7.629,7.629,0,0,1-3.329-1.985l-.184-.184.111-.073a11.324,11.324,0,0,1,1.679-.86l.112-.045.032.067C5.386-1266.785,5.472-1266.606,5.561-1266.423Zm7.558-.328a12,12,0,0,1,1.458.768l.111.073-.191.192a7.638,7.638,0,0,1-2.941,1.855,5.605,5.605,0,0,1-.709.2s.07-.09.156-.193a12.747,12.747,0,0,0,1.749-2.721,1.728,1.728,0,0,1,.14-.266C12.9-1266.84,13-1266.8,13.119-1266.752Z" fill="#002333"/>
  </g>
</svg>
