<svg xmlns="http://www.w3.org/2000/svg" width="11.244" height="17.991" viewBox="0 0 11.244 17.991">
  <path id="Icon_metro-location" data-name="Icon metro-location" d="M13.977,1.928A5.622,5.622,0,0,0,8.355,7.55c0,5.622,5.622,12.369,5.622,12.369S19.6,13.172,19.6,7.55a5.622,5.622,0,0,0-5.622-5.622Zm0,9.066A3.444,3.444,0,1,1,17.421,7.55,3.444,3.444,0,0,1,13.977,10.994ZM11.8,7.55a2.179,2.179,0,1,1,2.179,2.179A2.179,2.179,0,0,1,11.8,7.55Z" transform="translate(-8.355 -1.928)" fill="#002333"/>
</svg>
