<svg id="Icon_material-rate-review" data-name="Icon material-rate-review" xmlns="http://www.w3.org/2000/svg" width="19.208" height="19.208" viewBox="0 0 19.208 19.208">
  <path id="Icon_material-rate-review-2" data-name="Icon material-rate-review" d="M20.288,3H4.921A1.918,1.918,0,0,0,3.01,4.921L3,22.208l3.842-3.842H20.288a1.926,1.926,0,0,0,1.921-1.921V4.921A1.926,1.926,0,0,0,20.288,3ZM6.842,14.525V12.153l6.608-6.608a.475.475,0,0,1,.682,0l1.7,1.7a.475.475,0,0,1,0,.682l-6.617,6.6Zm11.525,0h-7.2L13.084,12.6h5.282Z" transform="translate(-3 -3)" fill="#002333"/>
</svg>
